<?xml version="1.0" encoding="utf-8"?>
<!-- Generator: $$$/GeneralStr/196=Adobe Illustrator 27.6.0, SVG Export Plug-In . SVG Version: 6.00 Build 0)  -->
<svg version="1.1" id="图层_1" xmlns="http://www.w3.org/2000/svg" xmlns:xlink="http://www.w3.org/1999/xlink" x="0px" y="0px"
	 viewBox="0 0 1080 1080" style="enable-background:new 0 0 1080 1080;" xml:space="preserve">
<style type="text/css">
	.st0{fill:none;stroke:#006424;stroke-width:15;stroke-miterlimit:10;}
</style>
<polygon class="st0" points="886.96,19 922.23,52.59 549.39,511.08 436.87,579.94 480.53,469.1 "/>
<path class="st0" d="M492.29,999.49l143.79-267.97c0,0-124.85,7.48-220.71-45.87c-95.87-53.35-113.45-155.35-113.45-155.35
	L167.27,781.24c0,0,44.43,84.39,146.32,139.29S492.29,999.49,492.29,999.49z"/>
<polyline class="st0" points="480.53,469.1 507.74,469.1 538.67,493.72 550,512 "/>
<path class="st0" d="M452.6,540c0,0,8.21-8,18.8,0c10.6,8,3.73,16.53,3.73,16.53"/>
</svg>
